<svg width="31" height="102" viewBox="0 0 31 102" fill="none" xmlns="http://www.w3.org/2000/svg">
<path d="M15 73.5C3.8 66.3 1 55.5 1 51L32 51L32 101C31 94.8333 26.2 80.7 15 73.5Z" fill="#F24800" stroke="#F24800"/>
<path d="M15 28.5C3.8 35.7 1 46.5 1 51L32 51L32 1C31 7.16667 26.2 21.3 15 28.5Z" fill="#F24800" stroke="#F24800"/>
<path d="M22.5 50.2L16.8 44.6C16.4 44.2 15.8 44.2 15.4 44.6C15 45 15 45.6 15.4 46L20.3 51L15.4 56C15 56.4 15 57 15.4 57.4C15.6 57.6 15.8 57.7 16.1 57.7C16.4 57.7 16.6 57.6 16.8 57.4L22.5 51.8C22.9 51.3 22.9 50.7 22.5 50.2C22.5 50.3 22.5 50.3 22.5 50.2Z" fill="#161817"/>
</svg>
