<svg width="170" height="170" viewBox="0 0 170 170" fill="none" xmlns="http://www.w3.org/2000/svg">
<path d="M85 7.08325C69.5895 7.08325 54.5251 11.653 41.7118 20.2146C28.8984 28.7762 18.9117 40.9451 13.0143 55.1825C7.11701 69.4199 5.574 85.0863 8.58043 100.201C11.5869 115.315 19.0077 129.198 29.9046 140.095C40.8014 150.992 54.6848 158.413 69.7992 161.419C84.9135 164.426 100.58 162.883 114.817 156.986C129.055 151.088 141.224 141.101 149.785 128.288C158.347 115.475 162.917 100.41 162.917 84.9999C162.917 64.3351 154.708 44.5167 140.095 29.9045C125.483 15.2923 105.665 7.08325 85 7.08325ZM85 148.75C72.3914 148.75 60.066 145.011 49.5824 138.006C39.0987 131.001 30.9277 121.045 26.1026 109.396C21.2775 97.7472 20.0151 84.9292 22.4749 72.5629C24.9347 60.1966 31.0063 48.8375 39.9219 39.9219C48.8375 31.0063 60.1967 24.9347 72.563 22.4749C84.9292 20.015 97.7472 21.2775 109.396 26.1026C121.045 30.9277 131.001 39.0987 138.006 49.5823C145.011 60.066 148.75 72.3914 148.75 84.9999C148.75 101.907 142.033 118.123 130.078 130.078C118.123 142.033 101.908 148.75 85 148.75ZM89.1791 54.3291C92.8158 54.4219 96.3821 55.3522 99.6008 57.0475C102.819 58.7428 105.604 61.1576 107.737 64.1041C108.875 65.596 110.558 66.5757 112.417 66.828C114.277 67.0803 116.16 66.5847 117.654 65.4499C118.398 64.8808 119.021 64.17 119.488 63.3585C119.955 62.547 120.257 61.6509 120.375 60.7221C120.494 59.7934 120.427 58.8503 120.179 57.9475C119.931 57.0447 119.506 56.2001 118.929 55.4624C115.483 50.7938 111.005 46.984 105.845 44.3301C100.685 41.6763 94.9812 40.25 89.1791 40.1624C81.0675 40.3985 73.226 43.1301 66.7234 47.9849C60.2207 52.8397 55.3732 59.5815 52.8416 67.2916H42.5C40.6213 67.2916 38.8197 68.0379 37.4913 69.3662C36.1629 70.6946 35.4166 72.4963 35.4166 74.3749C35.4166 76.2535 36.1629 78.0552 37.4913 79.3836C38.8197 80.712 40.6213 81.4583 42.5 81.4583H49.5833C49.5833 82.6624 49.5833 83.7958 49.5833 84.9999C49.5833 86.2041 49.5833 87.3374 49.5833 88.5416H42.5C40.6213 88.5416 38.8197 89.2879 37.4913 90.6162C36.1629 91.9446 35.4166 93.7463 35.4166 95.6249C35.4166 97.5035 36.1629 99.3052 37.4913 100.634C38.8197 101.962 40.6213 102.708 42.5 102.708H52.8416C55.3732 110.418 60.2207 117.16 66.7234 122.015C73.226 126.87 81.0675 129.601 89.1791 129.837C94.9812 129.75 100.685 128.324 105.845 125.67C111.005 123.016 115.483 119.206 118.929 114.537C119.691 113.829 120.288 112.962 120.677 111.997C121.066 111.032 121.237 109.993 121.179 108.955C121.121 107.916 120.835 106.903 120.341 105.987C119.848 105.071 119.158 104.276 118.322 103.657C117.486 103.037 116.524 102.61 115.504 102.405C114.484 102.2 113.432 102.222 112.421 102.469C111.411 102.717 110.467 103.184 109.658 103.837C108.848 104.491 108.193 105.314 107.737 106.25C105.604 109.196 102.819 111.611 99.6008 113.307C96.3821 115.002 92.8158 115.932 89.1791 116.025C84.8566 115.854 80.6586 114.529 77.0214 112.187C73.3842 109.845 70.4403 106.572 68.4958 102.708H85C86.8786 102.708 88.6802 101.962 90.0086 100.634C91.337 99.3052 92.0833 97.5035 92.0833 95.6249C92.0833 93.7463 91.337 91.9446 90.0086 90.6162C88.6802 89.2879 86.8786 88.5416 85 88.5416H64.1041C63.916 87.3691 63.7977 86.1865 63.75 84.9999C63.7977 83.8134 63.916 82.6307 64.1041 81.4583H85C86.8786 81.4583 88.6802 80.712 90.0086 79.3836C91.337 78.0552 92.0833 76.2535 92.0833 74.3749C92.0833 72.4963 91.337 70.6946 90.0086 69.3662C88.6802 68.0379 86.8786 67.2916 85 67.2916H68.4958C70.4874 63.4935 73.4516 60.2923 77.0855 58.0149C80.7194 55.7375 84.8927 54.4656 89.1791 54.3291Z" fill="#E4E4E4"/>
</svg>
