<svg width="170" height="170" viewBox="0 0 170 170" fill="none" xmlns="http://www.w3.org/2000/svg">
<path d="M101.717 100.796C96.9817 104.614 91.0825 106.696 85.0001 106.696C78.9177 106.696 73.0185 104.614 68.2835 100.796C66.8369 99.5936 64.972 99.0152 63.099 99.1879C61.226 99.3605 59.4983 100.27 58.296 101.717C57.0936 103.163 56.5152 105.028 56.6879 106.901C56.8606 108.774 57.7702 110.502 59.2168 111.704C66.4513 117.744 75.5762 121.052 85.0001 121.052C94.4241 121.052 103.549 117.744 110.783 111.704C112.23 110.502 113.14 108.774 113.312 106.901C113.485 105.028 112.907 103.163 111.704 101.717C111.109 101 110.378 100.409 109.554 99.9746C108.73 99.5407 107.829 99.2734 106.901 99.1879C105.028 99.0152 103.163 99.5936 101.717 100.796ZM65.2376 74.6584C66.5648 75.9777 68.3601 76.7182 70.2314 76.7182C72.1027 76.7182 73.898 75.9777 75.2251 74.6584C76.5444 73.3313 77.2849 71.536 77.2849 69.6647C77.2849 67.7933 76.5444 65.9981 75.2251 64.6709C71.1715 60.8246 65.7965 58.6804 60.2085 58.6804C54.6204 58.6804 49.2454 60.8246 45.1918 64.6709C44.4503 65.3059 43.8481 66.0873 43.4229 66.9661C42.9977 67.8449 42.7588 68.8021 42.7211 69.7776C42.6834 70.7531 42.8478 71.7259 43.2039 72.6349C43.56 73.5438 44.1002 74.3694 44.7905 75.0597C45.4808 75.75 46.3064 76.2901 47.2153 76.6463C48.1243 77.0024 49.0971 77.1667 50.0726 77.1291C51.0481 77.0914 52.0053 76.8525 52.8841 76.4273C53.7629 76.0021 54.5443 75.3999 55.1793 74.6584C55.8378 73.9945 56.6212 73.4675 57.4844 73.1079C58.3475 72.7483 59.2734 72.5632 60.2085 72.5632C61.1435 72.5632 62.0694 72.7483 62.9325 73.1079C63.7957 73.4675 64.5791 73.9945 65.2376 74.6584ZM124.808 64.6709C120.755 60.8246 115.38 58.6804 109.792 58.6804C104.204 58.6804 98.8288 60.8246 94.7751 64.6709C93.6147 66.026 93.0083 67.769 93.0772 69.5517C93.146 71.3344 93.885 73.0255 95.1466 74.287C96.4081 75.5485 98.0991 76.2875 99.8818 76.3564C101.665 76.4252 103.408 75.8188 104.763 74.6584C105.421 73.9945 106.205 73.4675 107.068 73.1079C107.931 72.7483 108.857 72.5632 109.792 72.5632C110.727 72.5632 111.653 72.7483 112.516 73.1079C113.379 73.4675 114.162 73.9945 114.821 74.6584C116.148 75.9777 117.943 76.7182 119.815 76.7182C121.686 76.7182 123.481 75.9777 124.808 74.6584C126.128 73.3313 126.868 71.536 126.868 69.6647C126.868 67.7933 126.128 65.9981 124.808 64.6709ZM85.0001 14.1667C70.9906 14.1667 57.2957 18.3211 45.6472 26.1043C33.9987 33.8876 24.9199 44.9502 19.5586 57.8933C14.1974 70.8364 12.7947 85.0787 15.5278 98.819C18.2609 112.559 25.0072 125.181 34.9134 135.087C44.8196 144.993 57.4409 151.739 71.1812 154.472C84.9215 157.205 99.1638 155.803 112.107 150.442C125.05 145.08 136.113 136.001 143.896 124.353C151.679 112.704 155.833 99.0096 155.833 85.0001C155.833 75.6981 154.001 66.4872 150.442 57.8933C146.882 49.2994 141.664 41.4908 135.087 34.9134C128.509 28.3359 120.701 23.1183 112.107 19.5586C103.513 15.9989 94.3021 14.1667 85.0001 14.1667ZM85.0001 141.667C73.7925 141.667 62.8366 138.343 53.5178 132.117C44.199 125.89 36.9359 117.04 32.6469 106.685C28.358 96.331 27.2358 84.9372 29.4223 73.945C31.6088 62.9527 37.0058 52.8557 44.9307 44.9307C52.8557 37.0057 62.9527 31.6087 73.945 29.4222C84.9373 27.2358 96.331 28.3579 106.686 32.6469C117.04 36.9359 125.89 44.199 132.117 53.5178C138.343 62.8366 141.667 73.7925 141.667 85.0001C141.667 100.029 135.697 114.442 125.07 125.069C114.442 135.697 100.029 141.667 85.0001 141.667Z" fill="#E4E4E4"/>
</svg>
