<svg width="170" height="165" viewBox="0 0 170 165" fill="none" xmlns="http://www.w3.org/2000/svg">
<path d="M153.779 139.103L26.2787 15.6993C24.9449 14.4084 23.1358 13.6831 21.2495 13.6831C19.3632 13.6831 17.5542 14.4084 16.2204 15.6993C14.8865 16.9903 14.1372 18.7412 14.1372 20.5669C14.1372 22.3926 14.8865 24.1436 16.2204 25.4345L44.5537 52.8576C35.5652 66.2909 30.6565 81.8979 30.387 97.9001C30.4613 111.903 36.2367 125.313 46.4605 135.221C56.6842 145.129 70.5319 150.737 84.9995 150.827C92.912 150.86 100.736 149.214 107.92 146.004C115.104 142.794 121.473 138.098 126.579 132.247L143.72 148.838C144.379 149.481 145.162 149.991 146.025 150.339C146.889 150.687 147.814 150.866 148.75 150.866C149.685 150.866 150.61 150.687 151.474 150.339C152.337 149.991 153.12 149.481 153.779 148.838C154.443 148.201 154.97 147.443 155.329 146.607C155.689 145.772 155.874 144.876 155.874 143.971C155.874 143.066 155.689 142.17 155.329 141.334C154.97 140.499 154.443 139.741 153.779 139.103ZM84.9995 137.115C74.2032 137.097 63.8545 132.938 56.2203 125.549C48.5862 118.16 44.2891 108.144 44.2704 97.6944C44.5134 85.3359 48.1039 73.2557 54.6829 62.6614L116.591 122.512C112.806 127.097 107.997 130.792 102.526 133.321C97.0545 135.85 91.0626 137.147 84.9995 137.115ZM76.8537 35.9239C80.0412 33.0444 82.8745 30.782 84.9995 29.0681C95.1287 36.7466 121.337 59.4392 125.233 89.9474C125.442 91.6196 126.279 93.1588 127.586 94.2716C128.892 95.3843 130.576 95.9926 132.316 95.9804H133.166C135.024 95.7575 136.715 94.8319 137.869 93.406C139.024 91.98 139.549 90.1697 139.329 88.3705C133.804 44.2879 90.8079 16.0421 89.037 14.8766C87.8657 14.1103 86.4842 13.7008 85.0704 13.7008C83.6565 13.7008 82.275 14.1103 81.1037 14.8766C76.2235 18.248 71.5851 21.9358 67.2204 25.9144C65.9942 27.1827 65.3111 28.8541 65.309 30.591C65.307 32.3279 65.9861 34.0008 67.2093 35.2717C68.4325 36.5426 70.1085 37.3168 71.8987 37.4379C73.6889 37.5589 75.4598 37.0178 76.8537 35.9239Z" fill="#E4E4E4"/>
</svg>
