<svg width="30" height="102" viewBox="0 0 30 102" fill="none" xmlns="http://www.w3.org/2000/svg">
<path d="M15.5 28.5C26.7 35.7 29.5 46.5 29.5 51H-1.5V1C-0.5 7.16667 4.3 21.3 15.5 28.5Z" fill="#F24800" stroke="#F24800"/>
<path d="M15.5 73.5C26.7 66.3 29.5 55.5 29.5 51H-1.5V101C-0.5 94.8333 4.3 80.7 15.5 73.5Z" fill="#F24800" stroke="#F24800"/>
<path d="M7.49995 51.8L13.2 57.4C13.6 57.8 14.2 57.8 14.6 57.4C15 57 15 56.4 14.6 56L9.69995 51L14.6 46C15 45.6 15 45 14.6 44.6C14.4 44.4 14.2 44.3 13.9 44.3C13.6 44.3 13.4 44.4 13.2 44.6L7.49995 50.2C7.09995 50.7 7.09995 51.3 7.49995 51.8C7.49995 51.7 7.49995 51.7 7.49995 51.8Z" fill="#161817"/>
</svg>
