<svg width="170" height="170" viewBox="0 0 170 170" fill="none" xmlns="http://www.w3.org/2000/svg">
<path d="M157.607 122.188L138.412 89.0375C142.34 81.8232 144.386 73.7352 144.362 65.5208C144.362 52.3705 139.138 39.7588 129.839 30.4601C120.54 21.1614 107.929 15.9375 94.7782 15.9375C81.6279 15.9375 69.0162 21.1614 59.7175 30.4601C50.4188 39.7588 45.1949 52.3705 45.1949 65.5208C45.1705 73.7352 47.2168 81.8232 51.1449 89.0375L31.949 122.188C31.3261 123.266 30.9988 124.49 31 125.736C31.0012 126.982 31.331 128.205 31.956 129.283C32.5811 130.361 33.4792 131.254 34.56 131.874C35.6407 132.494 36.8657 132.817 38.1115 132.813H58.4407L68.7823 150.238C69.131 150.815 69.5603 151.34 70.0574 151.796C71.3704 153.062 73.1211 153.772 74.9449 153.779H75.9365C77.0059 153.633 78.0277 153.244 78.9238 152.643C79.82 152.041 80.5669 151.243 81.1073 150.308L94.7782 126.792L108.449 150.521C108.997 151.442 109.748 152.226 110.643 152.815C111.539 153.404 112.557 153.782 113.62 153.921H114.612C116.46 153.932 118.239 153.22 119.57 151.938C120.046 151.507 120.453 151.006 120.774 150.45L131.116 133.025H151.445C152.693 133.03 153.92 132.705 155.002 132.083C156.085 131.461 156.983 130.564 157.607 129.483C158.269 128.382 158.619 127.121 158.619 125.835C158.619 124.55 158.269 123.289 157.607 122.188ZM74.874 133.025L68.5699 122.471C67.9491 121.424 67.069 120.554 66.0143 119.946C64.9597 119.338 63.7662 119.012 62.549 119H50.2949L60.424 101.433C67.3992 108.155 76.1902 112.686 85.7115 114.467L74.874 133.025ZM94.7782 100.938C87.7734 100.938 80.926 98.8604 75.1017 94.9687C69.2775 91.0771 64.7381 85.5458 62.0575 79.0742C59.3768 72.6027 58.6755 65.4816 60.042 58.6114C61.4086 51.7412 64.7817 45.4306 69.7348 40.4775C74.6879 35.5244 80.9986 32.1512 87.8687 30.7847C94.7389 29.4181 101.86 30.1195 108.332 32.8001C114.803 35.4807 120.334 40.0201 124.226 45.8444C128.118 51.6686 130.195 58.5161 130.195 65.5208C130.195 74.9139 126.463 83.9223 119.822 90.5642C113.18 97.2061 104.171 100.938 94.7782 100.938ZM127.007 119C125.79 119.012 124.597 119.338 123.542 119.946C122.487 120.554 121.607 121.424 120.987 122.471L114.682 133.025L103.916 114.254C113.404 112.437 122.162 107.91 129.132 101.221L139.262 118.788L127.007 119Z" fill="#E4E4E4"/>
</svg>
