<svg width="36" height="36" viewBox="0 0 36 36" fill="none" xmlns="http://www.w3.org/2000/svg">
<path d="M18 16.2001C18.5933 16.2001 19.1734 16.0242 19.6667 15.6945C20.1601 15.3649 20.5446 14.8964 20.7716 14.3482C20.9987 13.8 21.0581 13.1968 20.9424 12.6149C20.8266 12.0329 20.5409 11.4984 20.1213 11.0788C19.7018 10.6593 19.1672 10.3735 18.5853 10.2578C18.0033 10.142 17.4001 10.2014 16.8519 10.4285C16.3038 10.6556 15.8352 11.0401 15.5056 11.5334C15.1759 12.0268 15 12.6068 15 13.2001C15 13.9958 15.3161 14.7588 15.8787 15.3215C16.4413 15.8841 17.2043 16.2001 18 16.2001ZM16.935 26.5651C17.0744 26.7057 17.2403 26.8173 17.4231 26.8935C17.6059 26.9696 17.802 27.0088 18 27.0088C18.198 27.0088 18.3941 26.9696 18.5769 26.8935C18.7597 26.8173 18.9256 26.7057 19.065 26.5651L25.2 20.4151C26.6249 18.9909 27.5955 17.1762 27.9889 15.2003C28.3823 13.2245 28.1809 11.1763 27.4102 9.31497C26.6395 7.45359 25.3341 5.8626 23.659 4.74322C21.984 3.62384 20.0146 3.02637 18 3.02637C15.9854 3.02637 14.016 3.62384 12.341 4.74322C10.6659 5.8626 9.3605 7.45359 8.58978 9.31497C7.81906 11.1763 7.61767 13.2245 8.01109 15.2003C8.40451 17.1762 9.37507 18.9909 10.8 20.4151L16.935 26.5651ZM10.845 12.5101C10.9475 11.4407 11.2875 10.4076 11.8403 9.4863C12.393 8.56504 13.1446 7.77884 14.04 7.18513C15.2163 6.41278 16.5928 6.00127 18 6.00127C19.4072 6.00127 20.7837 6.41278 21.96 7.18513C22.8494 7.77681 23.5967 8.55823 24.1481 9.47321C24.6995 10.3882 25.0412 11.414 25.1488 12.4768C25.2564 13.5396 25.1271 14.6131 24.7702 15.62C24.4134 16.6269 23.8378 17.5422 23.085 18.3001L18 23.3851L12.915 18.3001C12.1613 17.5496 11.5844 16.6404 11.2263 15.6388C10.8682 14.6372 10.738 13.5684 10.845 12.5101ZM28.5 30.0001H7.5C7.10218 30.0001 6.72064 30.1582 6.43934 30.4395C6.15804 30.7208 6 31.1023 6 31.5001C6 31.898 6.15804 32.2795 6.43934 32.5608C6.72064 32.8421 7.10218 33.0001 7.5 33.0001H28.5C28.8978 33.0001 29.2794 32.8421 29.5607 32.5608C29.842 32.2795 30 31.898 30 31.5001C30 31.1023 29.842 30.7208 29.5607 30.4395C29.2794 30.1582 28.8978 30.0001 28.5 30.0001Z" fill="#E0E0E0"/>
</svg>
