<svg width="36" height="36" viewBox="0 0 36 36" fill="none" xmlns="http://www.w3.org/2000/svg">
<path d="M29.1602 19.5C28.8302 19.5 28.4852 19.395 28.1552 19.32C27.4869 19.1728 26.8302 18.9773 26.1902 18.735C25.4943 18.4819 24.7294 18.495 24.0426 18.772C23.3559 19.0489 22.7958 19.57 22.4702 20.235L22.1402 20.91C20.6792 20.0973 19.3366 19.0879 18.1502 17.91C16.9723 16.7236 15.9629 15.381 15.1502 13.92L15.7802 13.5C16.4452 13.1744 16.9663 12.6143 17.2432 11.9276C17.5202 11.2408 17.5333 10.4759 17.2802 9.78005C17.042 9.13868 16.8466 8.48224 16.6952 7.81505C16.6202 7.48505 16.5602 7.14005 16.5152 6.79505C16.333 5.73848 15.7796 4.78166 14.9546 4.09691C14.1296 3.41215 13.0872 3.04446 12.0152 3.06005H7.51515C6.8687 3.05398 6.22853 3.18727 5.63822 3.45084C5.04791 3.71442 4.52132 4.10209 4.0943 4.58747C3.66728 5.07285 3.34985 5.64454 3.16363 6.26362C2.97741 6.8827 2.92677 7.53463 3.01515 8.17505C3.81426 14.4591 6.68419 20.2979 11.1716 24.769C15.6591 29.2401 21.5082 32.0888 27.7952 32.865H28.3652C29.4713 32.8667 30.5392 32.4608 31.3652 31.725C31.8397 31.3006 32.2188 30.7803 32.4774 30.1985C32.7359 29.6167 32.8681 28.9867 32.8652 28.35V23.85C32.8468 22.8081 32.4674 21.8049 31.7917 21.0115C31.116 20.2182 30.1859 19.684 29.1602 19.5ZM29.9102 28.5C29.9099 28.713 29.8643 28.9235 29.7763 29.1175C29.6884 29.3115 29.5602 29.4845 29.4002 29.625C29.2325 29.7698 29.0366 29.8779 28.8248 29.9424C28.6129 30.007 28.39 30.0266 28.1702 30C22.5525 29.2798 17.3345 26.7098 13.3392 22.6955C9.34395 18.6812 6.79877 13.4511 6.10515 7.83005C6.08128 7.61032 6.1022 7.38804 6.16665 7.17663C6.23111 6.96522 6.33776 6.76908 6.48015 6.60005C6.62072 6.44004 6.79374 6.31181 6.98772 6.22387C7.1817 6.13594 7.39217 6.09032 7.60515 6.09005H12.1052C12.454 6.08228 12.7946 6.19637 13.0684 6.41265C13.3421 6.62894 13.532 6.9339 13.6052 7.27505C13.6652 7.68505 13.7402 8.09005 13.8302 8.49005C14.0034 9.28076 14.234 10.0578 14.5202 10.815L12.4202 11.79C12.2406 11.8724 12.0791 11.9895 11.9449 12.1344C11.8107 12.2794 11.7065 12.4495 11.6382 12.6348C11.5699 12.8202 11.5389 13.0172 11.5469 13.2146C11.555 13.412 11.602 13.6059 11.6852 13.785C13.844 18.4092 17.561 22.1262 22.1852 24.285C22.5503 24.4351 22.96 24.4351 23.3252 24.285C23.5122 24.2181 23.6841 24.1147 23.8309 23.9808C23.9777 23.8469 24.0964 23.6852 24.1802 23.505L25.1102 21.405C25.8856 21.6824 26.677 21.9128 27.4802 22.095C27.8802 22.185 28.2852 22.26 28.6952 22.32C29.0363 22.3932 29.3413 22.5831 29.5575 22.8568C29.7738 23.1306 29.8879 23.4712 29.8802 23.82L29.9102 28.5Z" fill="#E0E0E0"/>
</svg>
